# xmcd
#
# Track frame offsets:
#	182
#	40532
#	61457
#	68132
#	175982
#	199232
#
# Disc length: 3385 seconds
#
# Revision: 3
# Processed by: cddbd v1.5.1PL0 Copyright (c) Steve Scherf et al.
# Submitted via: audiograbber 1.83.01
#
DISCID=500d3706
DTITLE=Various Artist - Shine - The Complete Classics [CD 2]
DYEAR=1997
DGENRE=Classical
TTITLE0=Franz Liszt - Hungarian Rhapsody, S.224 No.2
TTITLE1=Serge Rachmaninoff - Prelude in C sharp minor, Op.3 No.2
TTITLE2=Nicolai Rimsky-Korsakov - Flight of the Bumble-Bee
TTITLE3=Ludwig Van Beethoven - Symphony No.9, 4th mvt Ode to Joy
TTITLE4=Franz Liszt - Etude de concert No.3 Un sospiro
TTITLE5=Antonio Vivaldi - Motet Nulla in mundo pax, RV 630
EXTD=YEAR: 1997
EXTT0=
EXTT1=
EXTT2=
EXTT3=
EXTT4=
EXTT5=
PLAYORDER=
